<!--?xml version="1.0" standalone="no"?-->
              <svg id="sw-js-blob-svg" viewBox="0 0 100 100" xmlns="http://www.w3.org/2000/svg" version="1.1">
                    <defs> 
                        <linearGradient id="sw-gradient" x1="0" x2="1" y1="1" y2="0">
                            <stop id="stop1" stop-color="rgba(248, 117, 55, 1)" offset="0%"></stop>
                            <stop id="stop2" stop-color="rgba(251, 168, 31, 1)" offset="100%"></stop>
                        </linearGradient>
                    </defs>
                <path fill="url(#sw-gradient)" d="M12.2,-24.1C16.8,-18.4,22.1,-17.2,27.6,-13.9C33.1,-10.6,38.6,-5.3,40.2,0.9C41.8,7.1,39.4,14.2,34.3,18.2C29.3,22.2,21.6,23.1,15.4,26.1C9.3,29,4.6,33.9,-1.2,36C-7.1,38.1,-14.1,37.4,-20.1,34.4C-26.2,31.4,-31.1,26.1,-31.6,20C-32.2,13.9,-28.2,7,-28.6,-0.2C-29,-7.4,-33.8,-14.8,-32,-18.8C-30.3,-22.7,-22,-23.2,-15.5,-27.8C-9.1,-32.4,-4.6,-41.2,-0.4,-40.5C3.8,-39.9,7.6,-29.8,12.2,-24.1Z" width="100%" height="100%" transform="translate(50 50)" stroke-width="0" style="transition: all 0.3s ease 0s;"></path>
              </svg>